<svg xmlns="http://www.w3.org/2000/svg" width="1em" height="1em" viewBox="0 0 24 24"><path fill="currentColor" d="M9.215 20.51q-2.696-.873-4.446-3.193q-1.75-2.319-1.75-5.33q0-.785.13-1.554q.13-.77.414-1.504L1.394 10.18l-.48-.86l3.89-2.25l2.25 3.885l-.866.519l-1.503-2.6q-.333.733-.49 1.525q-.157.792-.157 1.606q0 2.694 1.604 4.787q1.604 2.094 4.093 2.832zm5.997-12.53v-1h2.975q-1.131-1.424-2.756-2.193Q13.806 4.02 12 4.02q-1.587 0-2.965.57q-1.38.569-2.443 1.574l-.519-.903Q7.265 4.212 8.77 3.615q1.504-.596 3.212-.596q1.956 0 3.698.786q1.742.785 3.033 2.262V3.481h1v4.5zm.138 14.905l-3.89-2.27l2.25-3.865l.86.5l-1.56 2.662q2.969-.387 4.96-2.637T19.962 12q0-.525-.07-1.032t-.217-.987h1.044q.121.48.182.978q.06.497.06 1.022q0 3.26-2.05 5.73q-2.051 2.47-5.219 3.068l2.158 1.246z"/></svg>